PathFileType	4	(X/Y/Z)	Patient4_TMGait_0pt2_03_right_20.trc.trc
DataRate	CameraRate	NumFrames	NumMarkers	Units	OrigDataRate	OrigDataStartFrame	OrigNumFrames
48.275862068966	48.275862068966	5	33	mm	48.275862068966	89	       141
Frame#	Time	Sacral			L.Shoulder			Chest			R.Shoulder			Neck			R.ASIS			L.ASIS			R.Thigh.Superior			R.Thigh.Lateral			R.Thigh.Inferior			R.Patella			L.Thigh.Superior			L.Thigh.Lateral			L.Thigh.Inferior			L.Patella			L.Shank.Superior			L.Shank.Lateral			L.Shank.Inferior			R.Shank.Superior			R.Shank.Lateral			R.Shank.Inferior			R.Heel			R.Midfoot.Superior			R.Midfoot.Lateral			R.Toe			L.Heel			L.Midfoot.Lateral			L.Midfoot.Superior			L.Toe			L.Elbow			L.Wrist			R.Elbow			R.Wrist			
		X1	Y1	Z1	X2	Y2	Z2	X3	Y3	Z3	X4	Y4	Z4	X5	Y5	Z5	X6	Y6	Z6	X7	Y7	Z7	X8	Y8	Z8	X9	Y9	Z9	X10	Y10	Z10	X11	Y11	Z11	X12	Y12	Z12	X13	Y13	Z13	X14	Y14	Z14	X15	Y15	Z15	X16	Y16	Z16	X17	Y17	Z17	X18	Y18	Z18	X19	Y19	Z19	X20	Y20	Z20	X21	Y21	Z21	X22	Y22	Z22	X23	Y23	Z23	X24	Y24	Z24	X25	Y25	Z25	X26	Y26	Z26	X27	Y27	Z27	X28	Y28	Z28	X29	Y29	Z29	X30	Y30	Z30	X31	Y31	Z31	X32	Y32	Z32	X33	Y33	Z33	

89	44.772857142857	888.145703400864	1009.337528886961	530.476391459244	1028.715951630347	1436.092599862154	331.428347452964	1159.248958539009	1367.236046598957	470.920526588628	1108.604774628513	1442.431570077283	654.284528068862	1028.381031579525	1496.216315787389	491.914175007872	1127.623353058655	939.506851032153	618.778997331929	1081.385190032358	964.255966522411	348.471470355871	1126.703125152880	726.175810458842	593.441446412162	1036.018167440780	631.131597796858	671.508578284226	1089.463698439597	563.610653432003	587.481313307544	1071.822286070836	471.079626378094	600.549413789597	1143.626112605316	759.192610990660	372.485842286651	1057.226423263874	627.702288384244	305.310557000824	1160.807042158220	566.192297196827	361.837004463498	1167.034238705152	495.238005013421	365.413147973436	1140.372350558312	422.626559046440	354.346841735081	1050.785234684885	311.031896286212	297.414581909305	1104.137618779630	195.255857709865	359.076291247521	1017.865642260702	393.787623458135	617.324613401156	930.232535576659	318.759961928301	698.198869103417	931.194948366187	213.161514171223	638.731722397175	752.932693527726	81.309039296003	646.282911319136	933.997726313706	103.441950215335	651.802677435171	844.916590091778	57.463012954107	704.319229642654	1044.542156354277	37.059150762559	659.123308974876	976.349945466167	39.017951901428	389.303756898299	1052.301330424992	36.521233248740	310.648236721457	1135.107574541262	97.421081791781	339.956623434586	1263.661315239034	45.720026263549	313.973141022853	954.922137672389	1096.939852664148	209.022795320447	979.606539066440	834.765448765564	215.634426343249	1309.086819296836	1165.175440759428	739.838115289726	1520.375894558542	1266.381049516533	640.398517050394	
90	44.793571428571	887.983289151319	1009.931062175436	523.689690747486	1030.035226902180	1437.062631444396	326.245304035799	1158.617659296476	1368.428528066707	467.563447935748	1105.529123342586	1443.465971060982	650.346125948854	1027.421912722297	1497.154618873884	487.052084476936	1126.744078896673	940.793721341057	614.193230165267	1082.840321041579	965.007472564189	343.581121894710	1126.707817479564	727.362749403107	590.073763927538	1035.724128752754	632.633004678749	668.219273888893	1090.151625789762	564.538169759276	585.156566101639	1072.583338971452	471.544705414573	599.021900822814	1143.889332264794	758.806753697643	368.233599745061	1056.717606924841	627.441187925946	301.785547221797	1159.555194136308	565.562313008548	359.194848579494	1165.291225535052	494.658126063167	363.348218623085	1138.328213016696	422.106960165446	352.659096469879	1048.496535377162	310.616445188413	296.010398794094	1100.804680851795	194.924182756474	358.574881990606	1017.688194273412	394.839515888475	616.005908071256	928.761336715401	321.135661051599	696.744072848615	929.570387834289	214.882592749117	638.333141387884	750.026041643616	84.918688309878	646.036490451866	931.553474801245	104.058133736597	651.828924804687	841.578314301020	59.415496611723	704.152042652444	1040.576318551091	37.012259344815	659.047726706633	972.225741061790	39.055528970211	389.321541336009	1048.170071571024	36.545697282090	310.689446186843	1131.054231901192	97.298939707931	340.007676863201	1259.593975075481	45.335593072032	313.937270152350	967.784391880351	1095.830294371350	201.144040923505	1001.796781992483	834.741699746148	206.665756852106	1296.389251052707	1157.426959352291	738.511142914550	1517.773797009093	1240.471389332076	643.767675745468	
91	44.814285714286	887.692322915312	1010.388087038695	516.900591876278	1031.511117650711	1437.971312807316	321.201161780538	1158.014130970897	1369.423919583819	464.337591924488	1102.451559546679	1444.162510675171	646.543697855492	1026.591357670453	1497.938519800593	482.329039323994	1125.745107063949	941.994481059103	609.618660758055	1084.202555447342	965.653409352004	338.729769408471	1126.935271652682	728.479579345514	586.706363029866	1035.818565647977	633.920173894090	664.886627923779	1091.365959072752	565.340385929995	582.794174173751	1073.985593788376	471.774454693243	597.531775980670	1144.236473371066	758.411995950586	364.225846382695	1056.558454722631	627.082511170457	298.369771668082	1158.649926624332	564.925779354990	356.798244236127	1163.950048826480	494.016981961502	361.498519190760	1136.611540616144	421.519666111817	351.149865451806	1046.502675190840	310.210305468077	294.703425061729	1097.617499749907	194.578959252116	358.173243643036	1018.018826475367	395.709565335530	614.724874188078	927.680167505758	323.473364894893	695.298370285222	928.226003209708	216.560295562651	638.012353456245	747.233992197416	88.634808090707	645.869740943081	929.252359843615	104.607885317041	651.937480631109	838.325716585276	61.367769475153	704.056080903600	1036.636986842318	37.009541673844	658.988051124366	968.111509011998	39.132280579156	389.335951076626	1044.054671038065	36.600022837578	310.748244124082	1127.030522645279	97.187370086703	340.084550512591	1255.538455097890	44.917676839533	313.910751714990	981.052360597453	1094.937446616968	193.689529562985	1025.148667306009	835.443137858300	198.648686824647	1282.499673763671	1149.007636281224	737.258172007607	1512.809514415630	1211.059093215264	647.842214519055	
92	44.835000000000	887.238221778383	1010.647071208720	510.090432435997	1033.167901264402	1438.758652498842	316.317063907794	1157.463321616261	1370.133517972689	461.247174039193	1099.398659529167	1444.420621070514	642.883582889861	1025.909611369984	1498.496988631043	477.764695140758	1124.588468959245	943.029496769274	605.054857174286	1085.447231462832	966.123434962483	333.912782438422	1127.397412473198	729.457863852906	583.315786877995	1036.355156381615	634.903623534637	661.484080947461	1093.171306046539	565.950665775923	580.353639875908	1076.118800088510	471.702156333879	596.046703154542	1144.697107181184	757.999598464640	360.470826550425	1056.827619551477	626.586882518203	295.058260836627	1158.191403673716	564.274329703887	354.641777391228	1163.135191978129	493.291031447631	359.853937357894	1135.320336969865	420.822642949066	349.808545451737	1044.865863625490	309.796684022387	293.484818777351	1094.606081315423	194.203462149184	357.869760803008	1018.944897025628	396.327372964966	613.458209876206	927.079918555878	325.741211798226	693.851733761403	927.214726789041	218.169134520507	637.761218425608	744.595494996244	92.491096980941	645.808938532411	927.106016060753	105.079676180786	652.135237576369	835.180832700993	63.340382125390	704.047258907240	1032.725432689405	37.044320792333	658.949019554273	964.008719208344	39.245243050502	389.343274623723	1039.957375641725	36.678183498104	310.818534926255	1123.036614027669	97.087636685666	340.183151943127	1251.497175298569	44.473947496834	313.896145034851	994.580915371322	1094.270627879311	186.647305403991	1049.541333405281	836.970323528776	191.563163268906	1267.605006565038	1140.092227481730	735.980710033103	1505.039968619365	1178.382004674448	652.565958559100	
93	44.855714285714	886.591039144373	1010.637074339761	503.249523859253	1035.019186897778	1439.348679033438	311.613895025886	1156.982334016827	1370.462423566187	458.298947554192	1096.390575746520	1444.145270825108	639.372070478434	1025.387124459416	1498.753042923183	473.375580595219	1123.238483304090	943.805799698436	600.503792562278	1086.549789942987	966.340499049027	329.128297432935	1128.113881815201	730.229710435031	579.866908322867	1037.406542540371	635.495596631909	657.979297063834	1095.644236007012	566.307089558923	577.779901709011	1079.088621867580	471.268471492760	594.515428887921	1145.291321624771	757.548116873537	356.949234047393	1057.568920192265	625.910768958321	291.840751691724	1158.247894499850	563.590685653116	352.699496316520	1162.935476742107	492.454879978283	358.385981521675	1134.522775937052	419.970480434687	348.610312723336	1043.620633674472	309.349946298889	292.338731529784	1091.784317141496	193.774897995891	357.651951360215	1020.574237578550	396.627903102371	612.165997590126	927.077644565939	327.918185771034	692.381323347328	926.607186928026	219.698805176889	637.557422442939	742.173302567466	96.566433850194	645.866380296857	925.132845623845	105.478106953704	652.417570810057	832.174528922525	65.391961729209	704.129719161524	1028.834345074403	37.101127937015	658.932017841603	959.915960987184	39.384083459446	389.339932998888	1035.876749239001	36.769372644324	310.891520842676	1119.066534516392	96.998936588580	340.297129212652	1247.468940274743	44.017807067366	313.894427779143	1008.240962200313	1093.814379183533	179.981015365406	1074.830904509472	839.405794125820	185.347450276511	1251.893870312110	1130.844075534332	734.594262658883	1494.009124665381	1142.861117141812	657.868357835761	
